<svg xmlns="http://www.w3.org/2000/svg" viewBox="0 0 900 520" font-family="Georgia, serif">
<line x1="60" y1="400" x2="840" y2="400" stroke="#2b2620" stroke-width="1.6"/>
<rect x="170" y="100" width="540" height="300" fill="none" stroke="#2b2620" stroke-width="1.4"/>
<rect x="178.0" y="108.0" width="74.0" height="59.0" fill="none" fill-opacity="1" stroke="#2b2620" stroke-width="0.8"/>
<rect x="268.0" y="108.0" width="74.0" height="59.0" fill="none" fill-opacity="1" stroke="#2b2620" stroke-width="0.8"/>
<rect x="358.0" y="108.0" width="74.0" height="59.0" fill="none" fill-opacity="1" stroke="#2b2620" stroke-width="0.8"/>
<rect x="538.0" y="108.0" width="74.0" height="59.0" fill="none" fill-opacity="1" stroke="#2b2620" stroke-width="0.8"/>
<rect x="628.0" y="108.0" width="74.0" height="59.0" fill="none" fill-opacity="1" stroke="#2b2620" stroke-width="0.8"/>
<rect x="268.0" y="183.0" width="74.0" height="59.0" fill="none" fill-opacity="1" stroke="#2b2620" stroke-width="0.8"/>
<rect x="538.0" y="183.0" width="74.0" height="59.0" fill="#b4553a" fill-opacity="0.5" stroke="#2b2620" stroke-width="0.8"/>
<rect x="628.0" y="183.0" width="74.0" height="59.0" fill="none" fill-opacity="1" stroke="#2b2620" stroke-width="0.8"/>
<rect x="178.0" y="258.0" width="74.0" height="59.0" fill="none" fill-opacity="1" stroke="#2b2620" stroke-width="0.8"/>
<rect x="268.0" y="258.0" width="74.0" height="59.0" fill="none" fill-opacity="1" stroke="#2b2620" stroke-width="0.8"/>
<rect x="538.0" y="258.0" width="74.0" height="59.0" fill="none" fill-opacity="1" stroke="#2b2620" stroke-width="0.8"/>
<rect x="178.0" y="333.0" width="74.0" height="59.0" fill="none" fill-opacity="1" stroke="#2b2620" stroke-width="0.8"/>
<rect x="268.0" y="333.0" width="74.0" height="59.0" fill="none" fill-opacity="1" stroke="#2b2620" stroke-width="0.8"/>
<rect x="628.0" y="333.0" width="74.0" height="59.0" fill="none" fill-opacity="1" stroke="#2b2620" stroke-width="0.8"/>
<rect x="410.0" y="330" width="60" height="70" fill="none" stroke="#2b2620" stroke-width="1.2"/>
<line x1="170" y1="428" x2="710" y2="428" stroke="#b4553a" stroke-width="0.8"/><circle cx="170" cy="428" r="1.6" fill="#b4553a"/><circle cx="710" cy="428" r="1.6" fill="#b4553a"/><text x="440.0" y="423.0" fill="#b4553a" font-size="10" text-anchor="middle">16.0 m</text>
<rect x="14" y="14" width="872" height="492" fill="none" stroke="#2b2620" stroke-width="1.2" opacity="0.5"/><text x="26" y="496" fill="#2b2620" font-size="13" letter-spacing="2">COMMUNITY BUILDING</text><text x="874" y="496" fill="#8a8175" font-size="12" text-anchor="end" letter-spacing="1">DWG 03 · NORTH ELEVATION 1:100</text>
</svg>
